<?xml version="1.0" encoding="UTF-8"?>
<svg version="1.1" xmlns="http://www.w3.org/2000/svg" width="16" height="16">
<path d="M0 0 C1.0725 0.00515625 2.145 0.0103125 3.25 0.015625 C4.85875 0.00789063 4.85875 0.00789063 6.5 0 C9.25 0.265625 9.25 0.265625 11.25 2.265625 C11.4453125 5.0859375 11.4453125 5.0859375 11.375 8.390625 C11.35695313 9.48632812 11.33890625 10.58203125 11.3203125 11.7109375 C11.29710938 12.55398438 11.27390625 13.39703125 11.25 14.265625 C10.59 14.265625 9.93 14.265625 9.25 14.265625 C9.25 14.925625 9.25 15.585625 9.25 16.265625 C7.93 16.265625 6.61 16.265625 5.25 16.265625 C5.25 14.285625 5.25 12.305625 5.25 10.265625 C3.93 10.265625 2.61 10.265625 1.25 10.265625 C1.25 12.245625 1.25 14.225625 1.25 16.265625 C-0.07 16.265625 -1.39 16.265625 -2.75 16.265625 C-2.75 15.605625 -2.75 14.945625 -2.75 14.265625 C-3.41 14.265625 -4.07 14.265625 -4.75 14.265625 C-4.80389087 12.30758993 -4.84274217 10.34913591 -4.875 8.390625 C-4.89820313 7.30007812 -4.92140625 6.20953125 -4.9453125 5.0859375 C-4.67768384 1.22137965 -3.85625623 0.3724793 0 0 Z M-2.75 8.265625 C-2.75 8.925625 -2.75 9.585625 -2.75 10.265625 C-1.43 10.265625 -0.11 10.265625 1.25 10.265625 C1.25 9.605625 1.25 8.945625 1.25 8.265625 C-0.07 8.265625 -1.39 8.265625 -2.75 8.265625 Z M5.25 8.265625 C5.25 8.925625 5.25 9.585625 5.25 10.265625 C6.57 10.265625 7.89 10.265625 9.25 10.265625 C9.25 9.605625 9.25 8.945625 9.25 8.265625 C7.93 8.265625 6.61 8.265625 5.25 8.265625 Z " fill="#626262" transform="translate(4.75,-0.265625)"/>
</svg>
