<?xml version="1.0" encoding="UTF-8"?>
<svg version="1.1" xmlns="http://www.w3.org/2000/svg" width="16" height="16">
<path d="M0 0 C-0.31767632 5.40049736 -3.19996327 7.52337065 -7 11 C-6.34 11.33 -5.68 11.66 -5 12 C-5 12.66 -5 13.32 -5 14 C-7.33333333 14 -9.66666667 14 -12 14 C-12.33 14.66 -12.66 15.32 -13 16 C-13.99 16 -14.98 16 -16 16 C-16 15.01 -16 14.02 -16 13 C-15.01 12.34 -14.02 11.68 -13 11 C-13.33 10.67 -13.66 10.34 -14 10 C-14.04063832 8.33382885 -14.042721 6.66611905 -14 5 C-13.34 5 -12.68 5 -12 5 C-11.67 5.66 -11.34 6.32 -11 7 C-10.54109375 6.4946875 -10.0821875 5.989375 -9.609375 5.46875 C-8.99578125 4.8190625 -8.3821875 4.169375 -7.75 3.5 C-7.14671875 2.8503125 -6.5434375 2.200625 -5.921875 1.53125 C-4 0 -4 0 0 0 Z " fill="#626262" transform="translate(16,0)"/>
</svg>
